<?xml version="1.0" encoding="UTF-8" standalone="no"?><svg xmlns="http://www.w3.org/2000/svg" xmlns:xlink="http://www.w3.org/1999/xlink" contentStyleType="text/css" height="238px" preserveAspectRatio="none" style="width:184px;height:238px;background:#FFFFFF;" version="1.1" viewBox="0 0 184 238" width="184px" zoomAndPan="magnify"><defs/><g><g id="elem_Stack"><rect fill="#F1F1F1" height="81.1875" style="stroke:#181818;stroke-width:0.5;" width="78" x="43.5" y="7"/><text fill="#000000" font-family="sans-serif" font-size="14" lengthAdjust="spacing" textLength="38" x="63.5" y="21.9951">Stack</text><line style="stroke:#181818;stroke-width:1.0;" x1="43.5" x2="121.5" y1="27.2969" y2="27.2969"/><text fill="#000000" font-family="sans-serif" font-size="14" lengthAdjust="spacing" textLength="9" x="48.5" y="42.292">2</text><text fill="#000000" font-family="sans-serif" font-size="14" lengthAdjust="spacing" textLength="49" x="67.5" y="42.292">ref(obj)</text><line style="stroke:#181818;stroke-width:1.0;" x1="62.5" x2="62.5" y1="27.2969" y2="47.5938"/><line style="stroke:#181818;stroke-width:1.0;" x1="43.5" x2="121.5" y1="47.5938" y2="47.5938"/><text fill="#000000" font-family="sans-serif" font-size="14" lengthAdjust="spacing" textLength="9" x="48.5" y="62.5889">1</text><text fill="#000000" font-family="sans-serif" font-size="14" lengthAdjust="spacing" textLength="41" x="67.5" y="62.5889">b (20)</text><line style="stroke:#181818;stroke-width:1.0;" x1="62.5" x2="62.5" y1="47.5938" y2="67.8906"/><line style="stroke:#181818;stroke-width:1.0;" x1="43.5" x2="121.5" y1="67.8906" y2="67.8906"/><text fill="#000000" font-family="sans-serif" font-size="14" lengthAdjust="spacing" textLength="9" x="48.5" y="82.8857">0</text><text fill="#000000" font-family="sans-serif" font-size="14" lengthAdjust="spacing" textLength="40" x="67.5" y="82.8857">a (10)</text><line style="stroke:#181818;stroke-width:1.0;" x1="62.5" x2="62.5" y1="67.8906" y2="88.1875"/></g><g id="elem_Heap"><rect fill="#F1F1F1" height="40.5938" style="stroke:#181818;stroke-width:0.5;" width="149" x="7" y="155"/><text fill="#000000" font-family="sans-serif" font-size="14" lengthAdjust="spacing" textLength="36" x="63.5" y="169.9951">Heap</text><line style="stroke:#181818;stroke-width:1.0;" x1="7" x2="156" y1="175.2969" y2="175.2969"/><text fill="#000000" font-family="sans-serif" font-size="14" lengthAdjust="spacing" textLength="21" x="12" y="190.292">obj</text><text fill="#000000" font-family="sans-serif" font-size="14" lengthAdjust="spacing" textLength="108" x="43" y="190.292">Classe { Data }</text><line style="stroke:#181818;stroke-width:1.0;" x1="38" x2="38" y1="175.2969" y2="195.5938"/></g><!--MD5=[0f35c390659112ce4849788211d1a18f]
link Stack to Heap--><g id="link_Stack_Heap"><path codeLine="11" d="M42.5,37 C18.5,37 30.67,70.7 43.5,91 C75.46,141.57 132.5,100.13 164,151 C174.29,167.62 177.74,181.08 164,195 C139.84,219.46 88.11,231.02 82.92,201.15 " fill="none" id="Stack-to-Heap" style="stroke:#181818;stroke-width:1.0;"/><polygon fill="#181818" points="82.5,196,79.2326,205.2911,82.8999,200.984,87.2069,204.6513,82.5,196" style="stroke:#181818;stroke-width:1.0;"/></g><!--MD5=[b3e26d31c8f459deb16cea6ead121628]
@startuml "stack vs heap"

map Stack {
    2 => ref(obj)
    1 => b (20)
    0 => a (10)
}
map Heap {
obj=> Classe { Data }
}

Stack::2 - -> Heap::obj
@enduml

PlantUML version 1.2022.7(Mon Aug 22 14:01:30 BRT 2022)
(GPL source distribution)
Java Runtime: OpenJDK Runtime Environment
JVM: OpenJDK 64-Bit Server VM
Default Encoding: UTF-8
Language: pt
Country: BR
--></g></svg>