<?xml version="1.0" encoding="us-ascii" standalone="no"?><svg xmlns="http://www.w3.org/2000/svg" xmlns:xlink="http://www.w3.org/1999/xlink" contentStyleType="text/css" height="915px" preserveAspectRatio="none" style="width:1299px;height:915px;background:#FFFFFF;" version="1.1" viewBox="0 0 1299 915" width="1299px" zoomAndPan="magnify"><defs/><g><rect fill="#FFFFFF" height="87.3984" style="stroke:#181818;stroke-width:1.0;" width="10" x="1047.5" y="721.9609"/><rect fill="none" height="165.9297" style="stroke:#000000;stroke-width:1.5;" width="415" x="10" y="98.2969"/><rect fill="none" height="61.3984" style="stroke:#000000;stroke-width:1.5;" width="395" x="20" y="166.6953"/><rect fill="none" height="391.4688" style="stroke:#000000;stroke-width:1.5;" width="733.5" x="320" y="278.2266"/><rect fill="none" height="360.3359" style="stroke:#000000;stroke-width:1.5;" width="713.5" x="330" y="302.3594"/><rect fill="none" height="300.0703" style="stroke:#000000;stroke-width:1.5;" width="581" x="452.5" y="355.625"/><rect fill="none" height="46.2656" style="stroke:#000000;stroke-width:1.5;" width="354.5" x="462.5" y="527.0313"/><rect fill="none" height="61.3984" style="stroke:#000000;stroke-width:1.5;" width="289.5" x="734" y="587.2969"/><rect fill="none" height="133.6641" style="stroke:#000000;stroke-width:1.5;" width="363.5" x="929.5" y="683.6953"/><line style="stroke:#181818;stroke-width:0.5;stroke-dasharray:5.0,5.0;" x1="82" x2="82" y1="81.2969" y2="834.3594"/><line style="stroke:#181818;stroke-width:0.5;stroke-dasharray:5.0,5.0;" x1="372" x2="372" y1="81.2969" y2="834.3594"/><line style="stroke:#181818;stroke-width:0.5;stroke-dasharray:5.0,5.0;" x1="521.5" x2="521.5" y1="81.2969" y2="834.3594"/><line style="stroke:#181818;stroke-width:0.5;stroke-dasharray:5.0,5.0;" x1="775" x2="775" y1="81.2969" y2="834.3594"/><line style="stroke:#181818;stroke-width:0.5;stroke-dasharray:5.0,5.0;" x1="976.5" x2="976.5" y1="81.2969" y2="834.3594"/><line style="stroke:#181818;stroke-width:0.5;stroke-dasharray:5.0,5.0;" x1="1052" x2="1052" y1="81.2969" y2="834.3594"/><line style="stroke:#181818;stroke-width:0.5;stroke-dasharray:5.0,5.0;" x1="1254" x2="1254" y1="81.2969" y2="834.3594"/><rect fill="#E2E2F0" height="61.7531" rx="2.5" ry="2.5" style="stroke:#181818;stroke-width:0.5;" width="105" x="30" y="18.5438"/><text fill="#000000" font-family="sans-serif" font-size="18" font-weight="bold" lengthAdjust="spacing" textLength="91" x="37" y="42.2518">Provider</text><line style="stroke:#181818;stroke-width:1.0;" x1="30" x2="135" y1="51.4969" y2="51.4969"/><text fill="#000000" font-family="monospace" font-size="14" lengthAdjust="spacing" textLength="88" x="38.5" y="69.4609">job/console</text><rect fill="#E2E2F0" height="61.7531" rx="2.5" ry="2.5" style="stroke:#181818;stroke-width:0.5;" width="105" x="30" y="833.3594"/><text fill="#000000" font-family="sans-serif" font-size="18" font-weight="bold" lengthAdjust="spacing" textLength="91" x="37" y="857.0674">Provider</text><line style="stroke:#181818;stroke-width:1.0;" x1="30" x2="135" y1="866.3125" y2="866.3125"/><text fill="#000000" font-family="monospace" font-size="14" lengthAdjust="spacing" textLength="88" x="38.5" y="884.2764">job/console</text><path d="M345,55 L400,55 C405,55 405,68.1484 405,68.1484 C405,68.1484 405,81.2969 400,81.2969 L345,81.2969 C340,81.2969 340,68.1484 340,68.1484 C340,68.1484 340,55 345,55 " fill="#E2E2F0" style="stroke:#181818;stroke-width:0.5;"/><path d="M400,55 C395,55 395,68.1484 395,68.1484 C395,81.2969 400,81.2969 400,81.2969 " fill="none" style="stroke:#181818;stroke-width:0.5;"/><text fill="#000000" font-family="sans-serif" font-size="14" lengthAdjust="spacing" textLength="45" x="345" y="72.9951">Queue</text><path d="M345,833.3594 L400,833.3594 C405,833.3594 405,846.5078 405,846.5078 C405,846.5078 405,859.6563 400,859.6563 L345,859.6563 C340,859.6563 340,846.5078 340,846.5078 C340,846.5078 340,833.3594 345,833.3594 " fill="#E2E2F0" style="stroke:#181818;stroke-width:0.5;"/><path d="M400,833.3594 C395,833.3594 395,846.5078 395,846.5078 C395,859.6563 400,859.6563 400,859.6563 " fill="none" style="stroke:#181818;stroke-width:0.5;"/><text fill="#000000" font-family="sans-serif" font-size="14" lengthAdjust="spacing" textLength="45" x="345" y="851.3545">Queue</text><rect fill="#E2E2F0" height="61.7531" rx="2.5" ry="2.5" style="stroke:#181818;stroke-width:0.5;" width="98" x="472.5" y="18.5438"/><text fill="#000000" font-family="sans-serif" font-size="18" font-weight="bold" lengthAdjust="spacing" textLength="84" x="479.5" y="42.2518">Counter</text><line style="stroke:#181818;stroke-width:1.0;" x1="472.5" x2="570.5" y1="51.4969" y2="51.4969"/><text fill="#000000" font-family="monospace" font-size="14" lengthAdjust="spacing" textLength="48" x="497.5" y="69.4609">worker</text><rect fill="#E2E2F0" height="61.7531" rx="2.5" ry="2.5" style="stroke:#181818;stroke-width:0.5;" width="98" x="472.5" y="833.3594"/><text fill="#000000" font-family="sans-serif" font-size="18" font-weight="bold" lengthAdjust="spacing" textLength="84" x="479.5" y="857.0674">Counter</text><line style="stroke:#181818;stroke-width:1.0;" x1="472.5" x2="570.5" y1="866.3125" y2="866.3125"/><text fill="#000000" font-family="monospace" font-size="14" lengthAdjust="spacing" textLength="48" x="497.5" y="884.2764">worker</text><rect fill="#E2E2F0" height="30.2969" style="stroke:#181818;stroke-width:0.5;" width="59" x="748" y="46"/><rect fill="#E2E2F0" height="30.2969" style="stroke:#181818;stroke-width:0.5;" width="59" x="744" y="50"/><text fill="#000000" font-family="sans-serif" font-size="14" lengthAdjust="spacing" textLength="45" x="751" y="69.9951">Buffer</text><rect fill="#E2E2F0" height="30.2969" style="stroke:#181818;stroke-width:0.5;" width="59" x="748" y="833.3594"/><rect fill="#E2E2F0" height="30.2969" style="stroke:#181818;stroke-width:0.5;" width="59" x="744" y="837.3594"/><text fill="#000000" font-family="sans-serif" font-size="14" lengthAdjust="spacing" textLength="45" x="751" y="857.3545">Buffer</text><text fill="#000000" font-family="sans-serif" font-size="14" lengthAdjust="spacing" textLength="68" x="939.5" y="77.9951">Database</text><path d="M958.5,29 C958.5,19 976.5,19 976.5,19 C976.5,19 994.5,19 994.5,29 L994.5,55 C994.5,65 976.5,65 976.5,65 C976.5,65 958.5,65 958.5,55 L958.5,29 " fill="#E2E2F0" style="stroke:#181818;stroke-width:1.5;"/><path d="M958.5,29 C958.5,39 976.5,39 976.5,39 C976.5,39 994.5,39 994.5,29 " fill="none" style="stroke:#181818;stroke-width:1.5;"/><text fill="#000000" font-family="sans-serif" font-size="14" lengthAdjust="spacing" textLength="68" x="939.5" y="846.3545">Database</text><path d="M958.5,859.6563 C958.5,849.6563 976.5,849.6563 976.5,849.6563 C976.5,849.6563 994.5,849.6563 994.5,859.6563 L994.5,885.6563 C994.5,895.6563 976.5,895.6563 976.5,895.6563 C976.5,895.6563 958.5,895.6563 958.5,885.6563 L958.5,859.6563 " fill="#E2E2F0" style="stroke:#181818;stroke-width:1.5;"/><path d="M958.5,859.6563 C958.5,869.6563 976.5,869.6563 976.5,869.6563 C976.5,869.6563 994.5,869.6563 994.5,859.6563 " fill="none" style="stroke:#181818;stroke-width:1.5;"/><text fill="#000000" font-family="sans-serif" font-size="14" lengthAdjust="spacing" textLength="23" x="1038" y="77.9951">API</text><path d="M1032,37 L1032,61 M1032,49 L1049,49 " fill="none" style="stroke:#181818;stroke-width:0.5;"/><ellipse cx="1061" cy="49" fill="#E2E2F0" rx="12" ry="12" style="stroke:#181818;stroke-width:0.5;"/><text fill="#000000" font-family="sans-serif" font-size="14" lengthAdjust="spacing" textLength="23" x="1038" y="846.3545">API</text><path d="M1032,853.6563 L1032,877.6563 M1032,865.6563 L1049,865.6563 " fill="none" style="stroke:#181818;stroke-width:0.5;"/><ellipse cx="1061" cy="865.6563" fill="#E2E2F0" rx="12" ry="12" style="stroke:#181818;stroke-width:0.5;"/><text fill="#000000" font-family="sans-serif" font-size="14" lengthAdjust="spacing" textLength="51" x="1226" y="77.9951">Usu&#225;rio</text><ellipse cx="1254.5" cy="13.5" fill="#E2E2F0" rx="8" ry="8" style="stroke:#181818;stroke-width:0.5;"/><path d="M1254.5,21.5 L1254.5,48.5 M1241.5,29.5 L1267.5,29.5 M1254.5,48.5 L1241.5,63.5 M1254.5,48.5 L1267.5,63.5 " fill="none" style="stroke:#181818;stroke-width:0.5;"/><text fill="#000000" font-family="sans-serif" font-size="14" lengthAdjust="spacing" textLength="51" x="1226" y="846.3545">Usu&#225;rio</text><ellipse cx="1254.5" cy="858.1563" fill="#E2E2F0" rx="8" ry="8" style="stroke:#181818;stroke-width:0.5;"/><path d="M1254.5,866.1563 L1254.5,893.1563 M1241.5,874.1563 L1267.5,874.1563 M1254.5,893.1563 L1241.5,908.1563 M1254.5,893.1563 L1267.5,908.1563 " fill="none" style="stroke:#181818;stroke-width:0.5;"/><rect fill="#FFFFFF" height="87.3984" style="stroke:#181818;stroke-width:1.0;" width="10" x="1047.5" y="721.9609"/><path d="M10,98.2969 L119,98.2969 L119,105.4297 L109,115.4297 L10,115.4297 L10,98.2969 " fill="#EEEEEE" style="stroke:#000000;stroke-width:1.5;"/><rect fill="none" height="165.9297" style="stroke:#000000;stroke-width:1.5;" width="415" x="10" y="98.2969"/><text fill="#000000" font-family="sans-serif" font-size="13" font-weight="bold" lengthAdjust="spacing" textLength="64" x="25" y="111.3638">Provider</text><polygon fill="#181818" points="360.5,147.6953,370.5,151.6953,360.5,155.6953,364.5,151.6953" style="stroke:#181818;stroke-width:1.0;"/><line style="stroke:#181818;stroke-width:1.0;" x1="82.5" x2="366.5" y1="151.6953" y2="151.6953"/><text fill="#000000" font-family="sans-serif" font-size="13" lengthAdjust="spacing" textLength="109" x="89.5" y="131.4966">In&#237;cio da Vota&#231;&#227;o</text><text fill="#000000" font-family="sans-serif" font-size="13" lengthAdjust="spacing" textLength="266" x="89.5" y="146.6294">[id_votacao, nome, candidatos, eleitores]</text><path d="M20,166.6953 L98,166.6953 L98,173.8281 L88,183.8281 L20,183.8281 L20,166.6953 " fill="#EEEEEE" style="stroke:#000000;stroke-width:1.5;"/><rect fill="none" height="61.3984" style="stroke:#000000;stroke-width:1.5;" width="395" x="20" y="166.6953"/><text fill="#000000" font-family="sans-serif" font-size="13" font-weight="bold" lengthAdjust="spacing" textLength="33" x="35" y="179.7622">loop</text><text fill="#000000" font-family="sans-serif" font-size="11" font-weight="bold" lengthAdjust="spacing" textLength="125" x="113" y="178.9058">[Until time ending]</text><polygon fill="#181818" points="360.5,216.0938,370.5,220.0938,360.5,224.0938,364.5,220.0938" style="stroke:#181818;stroke-width:1.0;"/><line style="stroke:#181818;stroke-width:1.0;" x1="82.5" x2="366.5" y1="220.0938" y2="220.0938"/><text fill="#000000" font-family="sans-serif" font-size="13" lengthAdjust="spacing" textLength="30" x="89.5" y="199.895">Voto</text><text fill="#000000" font-family="sans-serif" font-size="13" lengthAdjust="spacing" textLength="235" x="89.5" y="215.0278">[id_votacao, id_eleitor, id_candidato]</text><line style="stroke:#181818;stroke-width:1.0;" x1="370.5" x2="360.5" y1="256.2266" y2="252.2266"/><line style="stroke:#181818;stroke-width:1.0;" x1="370.5" x2="360.5" y1="256.2266" y2="260.2266"/><line style="stroke:#181818;stroke-width:1.0;" x1="82.5" x2="371.5" y1="256.2266" y2="256.2266"/><text fill="#000000" font-family="sans-serif" font-size="13" lengthAdjust="spacing" textLength="217" x="89.5" y="251.1606">Fim da Vota&#231;&#227;o&lt;br&gt; [id_votacao]</text><path d="M320,278.2266 L437,278.2266 L437,285.3594 L427,295.3594 L320,295.3594 L320,278.2266 " fill="#EEEEEE" style="stroke:#000000;stroke-width:1.5;"/><rect fill="none" height="391.4688" style="stroke:#000000;stroke-width:1.5;" width="733.5" x="320" y="278.2266"/><text fill="#000000" font-family="sans-serif" font-size="13" font-weight="bold" lengthAdjust="spacing" textLength="72" x="335" y="291.2935">Contador</text><path d="M330,302.3594 L408,302.3594 L408,309.4922 L398,319.4922 L330,319.4922 L330,302.3594 " fill="#EEEEEE" style="stroke:#000000;stroke-width:1.5;"/><rect fill="none" height="360.3359" style="stroke:#000000;stroke-width:1.5;" width="713.5" x="330" y="302.3594"/><text fill="#000000" font-family="sans-serif" font-size="13" font-weight="bold" lengthAdjust="spacing" textLength="33" x="345" y="315.4263">loop</text><line style="stroke:#181818;stroke-width:1.0;" x1="519.5" x2="509.5" y1="340.625" y2="336.625"/><line style="stroke:#181818;stroke-width:1.0;" x1="519.5" x2="509.5" y1="340.625" y2="344.625"/><line style="stroke:#181818;stroke-width:1.0;" x1="372.5" x2="520.5" y1="340.625" y2="340.625"/><text fill="#000000" font-family="sans-serif" font-size="13" lengthAdjust="spacing" textLength="125" x="379.5" y="335.5591">Recebe mensagem</text><path d="M452.5,355.625 L518.5,355.625 L518.5,362.7578 L508.5,372.7578 L452.5,372.7578 L452.5,355.625 " fill="#EEEEEE" style="stroke:#000000;stroke-width:1.5;"/><rect fill="none" height="300.0703" style="stroke:#000000;stroke-width:1.5;" width="581" x="452.5" y="355.625"/><text fill="#000000" font-family="sans-serif" font-size="13" font-weight="bold" lengthAdjust="spacing" textLength="21" x="467.5" y="368.6919">alt</text><text fill="#000000" font-family="sans-serif" font-size="11" font-weight="bold" lengthAdjust="spacing" textLength="127" x="533.5" y="367.8354">[In&#237;cio da Vota&#231;&#227;o]</text><polygon fill="#181818" points="763.5,405.0234,773.5,409.0234,763.5,413.0234,767.5,409.0234" style="stroke:#181818;stroke-width:1.0;"/><line style="stroke:#181818;stroke-width:1.0;" x1="521.5" x2="769.5" y1="409.0234" y2="409.0234"/><text fill="#000000" font-family="sans-serif" font-size="13" lengthAdjust="spacing" textLength="230" x="528.5" y="388.8247">Inicializa vota&#231;&#227;o para id_votacao +</text><text fill="#000000" font-family="sans-serif" font-size="13" lengthAdjust="spacing" textLength="159" x="528.5" y="403.9575">defini&#231;&#227;o dos candidatos</text><line style="stroke:#000000;stroke-width:1.0;stroke-dasharray:2.0,2.0;" x1="452.5" x2="1033.5" y1="418.0234" y2="418.0234"/><text fill="#000000" font-family="sans-serif" font-size="11" font-weight="bold" lengthAdjust="spacing" textLength="114" x="457.5" y="428.2339">[Fim da Vota&#231;&#227;o]</text><polygon fill="#181818" points="763.5,464.0938,773.5,468.0938,763.5,472.0938,767.5,468.0938" style="stroke:#181818;stroke-width:1.0;"/><line style="stroke:#181818;stroke-width:1.0;" x1="521.5" x2="769.5" y1="468.0938" y2="468.0938"/><text fill="#000000" font-family="sans-serif" font-size="13" lengthAdjust="spacing" textLength="166" x="528.5" y="447.895">Finaliza buffer de vota&#231;&#227;o</text><text fill="#000000" font-family="sans-serif" font-size="13" lengthAdjust="spacing" textLength="115" x="528.5" y="463.0278">para o id_votacao</text><polygon fill="#181818" points="964.5,493.2266,974.5,497.2266,964.5,501.2266,968.5,497.2266" style="stroke:#181818;stroke-width:1.0;"/><line style="stroke:#181818;stroke-width:1.0;" x1="775.5" x2="970.5" y1="497.2266" y2="497.2266"/><text fill="#000000" font-family="sans-serif" font-size="13" lengthAdjust="spacing" textLength="106" x="782.5" y="492.1606">Totaliza vota&#231;&#227;o</text><line style="stroke:#000000;stroke-width:1.0;stroke-dasharray:2.0,2.0;" x1="452.5" x2="1033.5" y1="506.2266" y2="506.2266"/><text fill="#000000" font-family="sans-serif" font-size="11" font-weight="bold" lengthAdjust="spacing" textLength="44" x="457.5" y="516.437">[Voto]</text><path d="M462.5,527.0313 L528.5,527.0313 L528.5,534.1641 L518.5,544.1641 L462.5,544.1641 L462.5,527.0313 " fill="#EEEEEE" style="stroke:#000000;stroke-width:1.5;"/><rect fill="none" height="46.2656" style="stroke:#000000;stroke-width:1.5;" width="354.5" x="462.5" y="527.0313"/><text fill="#000000" font-family="sans-serif" font-size="13" font-weight="bold" lengthAdjust="spacing" textLength="21" x="477.5" y="540.0981">alt</text><text fill="#000000" font-family="sans-serif" font-size="11" font-weight="bold" lengthAdjust="spacing" textLength="243" x="543.5" y="539.2417">[Buffer de vota&#231;&#227;o est&#225; inicalizado]</text><line style="stroke:#181818;stroke-width:1.0;" x1="773.5" x2="763.5" y1="565.2969" y2="561.2969"/><line style="stroke:#181818;stroke-width:1.0;" x1="773.5" x2="763.5" y1="565.2969" y2="569.2969"/><line style="stroke:#181818;stroke-width:1.0;" x1="521.5" x2="774.5" y1="565.2969" y2="565.2969"/><text fill="#000000" font-family="sans-serif" font-size="13" lengthAdjust="spacing" textLength="86" x="528.5" y="560.231">Registra voto</text><path d="M734,587.2969 L800,587.2969 L800,594.4297 L790,604.4297 L734,604.4297 L734,587.2969 " fill="#EEEEEE" style="stroke:#000000;stroke-width:1.5;"/><rect fill="none" height="61.3984" style="stroke:#000000;stroke-width:1.5;" width="289.5" x="734" y="587.2969"/><text fill="#000000" font-family="sans-serif" font-size="13" font-weight="bold" lengthAdjust="spacing" textLength="21" x="749" y="600.3638">alt</text><text fill="#000000" font-family="sans-serif" font-size="11" font-weight="bold" lengthAdjust="spacing" textLength="108" x="815" y="599.5073">[A cada x votos]</text><line style="stroke:#181818;stroke-width:1.0;" x1="974.5" x2="964.5" y1="640.6953" y2="636.6953"/><line style="stroke:#181818;stroke-width:1.0;" x1="974.5" x2="964.5" y1="640.6953" y2="644.6953"/><line style="stroke:#181818;stroke-width:1.0;" x1="775.5" x2="975.5" y1="640.6953" y2="640.6953"/><text fill="#000000" font-family="sans-serif" font-size="13" lengthAdjust="spacing" textLength="177" x="782.5" y="620.4966">Registra resultados parciais</text><text fill="#000000" font-family="sans-serif" font-size="13" lengthAdjust="spacing" textLength="115" x="782.5" y="635.6294">para o id_votacao</text><path d="M929.5,683.6953 L999.5,683.6953 L999.5,690.8281 L989.5,700.8281 L929.5,700.8281 L929.5,683.6953 " fill="#EEEEEE" style="stroke:#000000;stroke-width:1.5;"/><rect fill="none" height="133.6641" style="stroke:#000000;stroke-width:1.5;" width="363.5" x="929.5" y="683.6953"/><text fill="#000000" font-family="sans-serif" font-size="13" font-weight="bold" lengthAdjust="spacing" textLength="25" x="944.5" y="696.7622">API</text><polygon fill="#181818" points="1068.5,717.9609,1058.5,721.9609,1068.5,725.9609,1064.5,721.9609" style="stroke:#181818;stroke-width:1.0;"/><line style="stroke:#181818;stroke-width:1.0;" x1="1062.5" x2="1253.5" y1="721.9609" y2="721.9609"/><text fill="#000000" font-family="sans-serif" font-size="13" lengthAdjust="spacing" textLength="178" x="1074.5" y="716.895">GET /votacao/{id_votacao}</text><polygon fill="#181818" points="987.5,747.0938,977.5,751.0938,987.5,755.0938,983.5,751.0938" style="stroke:#181818;stroke-width:1.0;"/><line style="stroke:#181818;stroke-width:1.0;" x1="981.5" x2="1046.5" y1="751.0938" y2="751.0938"/><text fill="#000000" font-family="sans-serif" font-size="13" lengthAdjust="spacing" textLength="39" x="993.5" y="746.0278">Query</text><polygon fill="#181818" points="1035.5,776.2266,1045.5,780.2266,1035.5,784.2266,1039.5,780.2266" style="stroke:#181818;stroke-width:1.0;"/><line style="stroke:#181818;stroke-width:1.0;" x1="976.5" x2="1041.5" y1="780.2266" y2="780.2266"/><text fill="#000000" font-family="sans-serif" font-size="13" lengthAdjust="spacing" textLength="47" x="983.5" y="775.1606">Results</text><polygon fill="#181818" points="1242.5,805.3594,1252.5,809.3594,1242.5,813.3594,1246.5,809.3594" style="stroke:#181818;stroke-width:1.0;"/><line style="stroke:#181818;stroke-width:1.0;" x1="1052.5" x2="1248.5" y1="809.3594" y2="809.3594"/><text fill="#000000" font-family="sans-serif" font-size="13" lengthAdjust="spacing" textLength="63" x="1059.5" y="804.2935">Response</text><!--SRC=[VLJDRXCn4BxxAKQvaYZt22ArfKMzbQZbqaJ8kvv4XerdiRs1WdYOYWCddc9VZF7iJtQJWW_HU7Rc-xxvSKhjeyrjgLs4Eqy7Qz33em8-Rtg7N6Tyn9XCFb4spya5Ad0oKHjGNogi4DxBhmuWLrKEeA-eSd60tDvFWR-I_uo-mSofA32FbddWijfkEPkXisghZ8uwqm7XRMVm1vCfbJ6gqVu9Bkvkaq-NLkayaeU7KDNFtbBoLe69rSvJLHuhx8pPKiGluDRLVt9EC1e-KDJrx_eNhTsZDHyFVCqrJS7H7gUGQsSiIw8m1IpGCXs6ZIg8IdXmqHOGxHu1EShjfCupBYOunMQx1HEx9zb0UnG33bHtK3TsFvByElDB621lKXvqvL-HYzfGcaFIgpfm0MFGTamBM66E6S8UNT0xtFU1keWlTgeFIAT5cIrvUAcnl1IwiDyr7Bfmu5tHS5G9hzREuDOwstms50Pzxi6nuDcVLlmVwXlh6kAisIU3Hmbh9nfee4ADe3XdjZJP0kxvwrZ-M52QvYWpDUdod14mnFePkCXSyCmuQoI_qR_2dGtH2pCDuqQ9QJ5EwI-uVToaRv8PpdYaDYckf-0bhegq724DXoTcmqij-XTnibLdoANPE7wPuawFSBRa1xg0TzVtC6_nvZ-Es3ybaD-lFUY8yfZ5KTfc3lntuv_4PR8MQYMYmp4kqOYxvByHR89n1CdQ_W80]--></g></svg>