<?xml version="1.0" encoding="UTF-8" standalone="no"?><svg xmlns="http://www.w3.org/2000/svg" xmlns:xlink="http://www.w3.org/1999/xlink" contentStyleType="text/css" height="1542px" preserveAspectRatio="none" style="width:797px;height:1542px;background:#FFFFFF;" version="1.1" viewBox="0 0 797 1542" width="797px" zoomAndPan="magnify"><defs/><g><rect fill="#F1F1F1" height="36.2969" rx="12.5" ry="12.5" style="stroke:#181818;stroke-width:1.5;" width="88" x="10" y="751.8594"/><text fill="#000000" font-family="sans-serif" font-size="14" lengthAdjust="spacing" textLength="68" x="20" y="774.8545">Roadmap</text><rect fill="#90EE90" height="36.2969" rx="12.5" ry="12.5" style="stroke:#181818;stroke-width:1.5;" width="63" x="148" y="76.2969"/><text fill="#000000" font-family="sans-serif" font-size="14" lengthAdjust="spacing" textLength="43" x="158" y="99.292">Setup</text><rect fill="#ADD8E6" height="36.2969" rx="12.5" ry="12.5" style="stroke:#181818;stroke-width:1.5;" width="111" x="261" y="20"/><text fill="#000000" font-family="sans-serif" font-size="14" lengthAdjust="spacing" textLength="91" x="271" y="42.9951">Visual Studio</text><path d="M211,94.4453 L221,94.4453 C236,94.4453 236,38.1484 251,38.1484 L261,38.1484 " fill="none" style="stroke:#181818;stroke-width:1.0;"/><rect fill="#ADD8E6" height="36.2969" rx="12.5" ry="12.5" style="stroke:#181818;stroke-width:1.5;" width="59" x="261" y="76.2969"/><text fill="#000000" font-family="sans-serif" font-size="14" lengthAdjust="spacing" textLength="39" x="271" y="99.292">WSL2</text><path d="M211,94.4453 L221,94.4453 C236,94.4453 236,94.4453 251,94.4453 L261,94.4453 " fill="none" style="stroke:#181818;stroke-width:1.0;"/><rect fill="#ADD8E6" height="36.2969" rx="12.5" ry="12.5" style="stroke:#181818;stroke-width:1.5;" width="72" x="261" y="132.5938"/><text fill="#000000" font-family="sans-serif" font-size="14" lengthAdjust="spacing" textLength="52" x="271" y="155.5889">Docker</text><path d="M211,94.4453 L221,94.4453 C236,94.4453 236,150.7422 251,150.7422 L261,150.7422 " fill="none" style="stroke:#181818;stroke-width:1.0;"/><path d="M98,770.0078 L108,770.0078 C123,770.0078 123,94.4453 138,94.4453 L148,94.4453 " fill="none" style="stroke:#181818;stroke-width:1.0;"/><rect fill="#90EE90" height="36.2969" rx="12.5" ry="12.5" style="stroke:#181818;stroke-width:1.5;" width="160" x="148" y="442.2266"/><text fill="#000000" font-family="sans-serif" font-size="14" lengthAdjust="spacing" textLength="140" x="158" y="465.2217">Bases da linguagem</text><rect fill="#ADD8E6" height="36.2969" rx="12.5" ry="12.5" style="stroke:#181818;stroke-width:1.5;" width="136" x="358" y="188.8906"/><text fill="#000000" font-family="sans-serif" font-size="14" lengthAdjust="spacing" textLength="116" x="368" y="211.8857">Tipos primitivos</text><path d="M308,460.375 L318,460.375 C333,460.375 333,207.0391 348,207.0391 L358,207.0391 " fill="none" style="stroke:#181818;stroke-width:1.0;"/><rect fill="#ADD8E6" height="36.2969" rx="12.5" ry="12.5" style="stroke:#181818;stroke-width:1.5;" width="71" x="358" y="245.1875"/><text fill="#000000" font-family="sans-serif" font-size="14" lengthAdjust="spacing" textLength="51" x="368" y="268.1826">Strings</text><path d="M308,460.375 L318,460.375 C333,460.375 333,263.3359 348,263.3359 L358,263.3359 " fill="none" style="stroke:#181818;stroke-width:1.0;"/><rect fill="#ADD8E6" height="36.2969" rx="12.5" ry="12.5" style="stroke:#181818;stroke-width:1.5;" width="78" x="358" y="301.4844"/><text fill="#000000" font-family="sans-serif" font-size="14" lengthAdjust="spacing" textLength="58" x="368" y="324.4795">Records</text><path d="M308,460.375 L318,460.375 C333,460.375 333,319.6328 348,319.6328 L358,319.6328 " fill="none" style="stroke:#181818;stroke-width:1.0;"/><rect fill="#ADD8E6" height="36.2969" rx="12.5" ry="12.5" style="stroke:#181818;stroke-width:1.5;" width="72" x="358" y="357.7813"/><text fill="#000000" font-family="sans-serif" font-size="14" lengthAdjust="spacing" textLength="52" x="368" y="380.7764">Classes</text><path d="M308,460.375 L318,460.375 C333,460.375 333,375.9297 348,375.9297 L358,375.9297 " fill="none" style="stroke:#181818;stroke-width:1.0;"/><rect fill="#ADD8E6" height="36.2969" rx="12.5" ry="12.5" style="stroke:#181818;stroke-width:1.5;" width="82" x="358" y="414.0781"/><text fill="#000000" font-family="sans-serif" font-size="14" lengthAdjust="spacing" textLength="62" x="368" y="437.0732">Métodos</text><path d="M308,460.375 L318,460.375 C333,460.375 333,432.2266 348,432.2266 L358,432.2266 " fill="none" style="stroke:#181818;stroke-width:1.0;"/><rect fill="#ADD8E6" height="36.2969" rx="12.5" ry="12.5" style="stroke:#181818;stroke-width:1.5;" width="72" x="358" y="470.375"/><text fill="#000000" font-family="sans-serif" font-size="14" lengthAdjust="spacing" textLength="52" x="368" y="493.3701">Escopo</text><path d="M308,460.375 L318,460.375 C333,460.375 333,488.5234 348,488.5234 L358,488.5234 " fill="none" style="stroke:#181818;stroke-width:1.0;"/><rect fill="#ADD8E6" height="36.2969" rx="12.5" ry="12.5" style="stroke:#181818;stroke-width:1.5;" width="78" x="358" y="526.6719"/><text fill="#000000" font-family="sans-serif" font-size="14" lengthAdjust="spacing" textLength="58" x="368" y="549.667">Herança</text><path d="M308,460.375 L318,460.375 C333,460.375 333,544.8203 348,544.8203 L358,544.8203 " fill="none" style="stroke:#181818;stroke-width:1.0;"/><rect fill="#ADD8E6" height="36.2969" rx="12.5" ry="12.5" style="stroke:#181818;stroke-width:1.5;" width="110" x="358" y="582.9688"/><text fill="#000000" font-family="sans-serif" font-size="14" lengthAdjust="spacing" textLength="90" x="368" y="605.9639">Namespaces</text><path d="M308,460.375 L318,460.375 C333,460.375 333,601.1172 348,601.1172 L358,601.1172 " fill="none" style="stroke:#181818;stroke-width:1.0;"/><rect fill="#ADD8E6" height="36.2969" rx="12.5" ry="12.5" style="stroke:#181818;stroke-width:1.5;" width="83" x="358" y="639.2656"/><text fill="#000000" font-family="sans-serif" font-size="14" lengthAdjust="spacing" textLength="63" x="368" y="662.2607">Generics</text><path d="M308,460.375 L318,460.375 C333,460.375 333,657.4141 348,657.4141 L358,657.4141 " fill="none" style="stroke:#181818;stroke-width:1.0;"/><rect fill="#ADD8E6" height="36.2969" rx="12.5" ry="12.5" style="stroke:#181818;stroke-width:1.5;" width="93" x="358" y="695.5625"/><text fill="#000000" font-family="sans-serif" font-size="14" lengthAdjust="spacing" textLength="73" x="368" y="718.5576">Interfaces</text><path d="M308,460.375 L318,460.375 C333,460.375 333,713.7109 348,713.7109 L358,713.7109 " fill="none" style="stroke:#181818;stroke-width:1.0;"/><path d="M98,770.0078 L108,770.0078 C123,770.0078 123,460.375 138,460.375 L148,460.375 " fill="none" style="stroke:#181818;stroke-width:1.0;"/><rect fill="#90EE90" height="36.2969" rx="12.5" ry="12.5" style="stroke:#181818;stroke-width:1.5;" width="82" x="148" y="836.3047"/><text fill="#000000" font-family="sans-serif" font-size="14" lengthAdjust="spacing" textLength="62" x="158" y="859.2998">Técnicas</text><rect fill="#ADD8E6" height="36.2969" rx="12.5" ry="12.5" style="stroke:#181818;stroke-width:1.5;" width="135" x="280" y="751.8594"/><text fill="#000000" font-family="sans-serif" font-size="14" lengthAdjust="spacing" textLength="115" x="290" y="774.8545">Testes Unitários</text><path d="M230,854.4531 L240,854.4531 C255,854.4531 255,770.0078 270,770.0078 L280,770.0078 " fill="none" style="stroke:#181818;stroke-width:1.0;"/><rect fill="#ADD8E6" height="36.2969" rx="12.5" ry="12.5" style="stroke:#181818;stroke-width:1.5;" width="193" x="280" y="808.1563"/><text fill="#000000" font-family="sans-serif" font-size="14" lengthAdjust="spacing" textLength="173" x="290" y="831.1514">Programação assíncrona</text><path d="M230,854.4531 L240,854.4531 C255,854.4531 255,826.3047 270,826.3047 L280,826.3047 " fill="none" style="stroke:#181818;stroke-width:1.0;"/><rect fill="#ADD8E6" height="36.2969" rx="12.5" ry="12.5" style="stroke:#181818;stroke-width:1.5;" width="116" x="280" y="864.4531"/><text fill="#000000" font-family="sans-serif" font-size="14" lengthAdjust="spacing" textLength="96" x="290" y="887.4482">Health Check</text><path d="M230,854.4531 L240,854.4531 C255,854.4531 255,882.6016 270,882.6016 L280,882.6016 " fill="none" style="stroke:#181818;stroke-width:1.0;"/><rect fill="#ADD8E6" height="36.2969" rx="12.5" ry="12.5" style="stroke:#181818;stroke-width:1.5;" width="171" x="280" y="920.75"/><text fill="#000000" font-family="sans-serif" font-size="14" lengthAdjust="spacing" textLength="151" x="290" y="943.7451">Testes de Integração</text><path d="M230,854.4531 L240,854.4531 C255,854.4531 255,938.8984 270,938.8984 L280,938.8984 " fill="none" style="stroke:#181818;stroke-width:1.0;"/><path d="M98,770.0078 L108,770.0078 C123,770.0078 123,854.4531 138,854.4531 L148,854.4531 " fill="none" style="stroke:#181818;stroke-width:1.0;"/><rect fill="#90EE90" height="36.2969" rx="12.5" ry="12.5" style="stroke:#181818;stroke-width:1.5;" width="152" x="148" y="1117.7891"/><text fill="#000000" font-family="sans-serif" font-size="14" lengthAdjust="spacing" textLength="132" x="158" y="1140.7842">Recursos externos</text><rect fill="#ADD8E6" height="36.2969" rx="12.5" ry="12.5" style="stroke:#181818;stroke-width:1.5;" width="134" x="350" y="1005.1953"/><text fill="#000000" font-family="sans-serif" font-size="14" lengthAdjust="spacing" textLength="114" x="360" y="1028.1904">Message Broker</text><rect fill="#F1F1F1" height="36.2969" rx="12.5" ry="12.5" style="stroke:#181818;stroke-width:1.5;" width="147" x="534" y="977.0469"/><text fill="#000000" font-family="sans-serif" font-size="14" lengthAdjust="spacing" textLength="127" x="544" y="1000.042">Azure Service Bus</text><path d="M484,1023.3438 L494,1023.3438 C509,1023.3438 509,995.1953 524,995.1953 L534,995.1953 " fill="none" style="stroke:#181818;stroke-width:1.0;"/><rect fill="#F1F1F1" height="36.2969" rx="12.5" ry="12.5" style="stroke:#181818;stroke-width:1.5;" width="92" x="534" y="1033.3438"/><text fill="#000000" font-family="sans-serif" font-size="14" lengthAdjust="spacing" textLength="72" x="544" y="1056.3389">RabbitMQ</text><path d="M484,1023.3438 L494,1023.3438 C509,1023.3438 509,1051.4922 524,1051.4922 L534,1051.4922 " fill="none" style="stroke:#181818;stroke-width:1.0;"/><path d="M300,1135.9375 L310,1135.9375 C325,1135.9375 325,1023.3438 340,1023.3438 L350,1023.3438 " fill="none" style="stroke:#181818;stroke-width:1.0;"/><rect fill="#ADD8E6" height="36.2969" rx="12.5" ry="12.5" style="stroke:#181818;stroke-width:1.5;" width="134" x="350" y="1174.0859"/><text fill="#000000" font-family="sans-serif" font-size="14" lengthAdjust="spacing" textLength="114" x="360" y="1197.0811">Banco de Dados</text><rect fill="#F1F1F1" height="36.2969" rx="12.5" ry="12.5" style="stroke:#181818;stroke-width:1.5;" width="89" x="534" y="1089.6406"/><text fill="#000000" font-family="sans-serif" font-size="14" lengthAdjust="spacing" textLength="69" x="544" y="1112.6357">MongoDB</text><path d="M484,1192.2344 L494,1192.2344 C509,1192.2344 509,1107.7891 524,1107.7891 L534,1107.7891 " fill="none" style="stroke:#181818;stroke-width:1.0;"/><rect fill="#F1F1F1" height="36.2969" rx="12.5" ry="12.5" style="stroke:#181818;stroke-width:1.5;" width="104" x="534" y="1145.9375"/><text fill="#000000" font-family="sans-serif" font-size="14" lengthAdjust="spacing" textLength="84" x="544" y="1168.9326">PostgreSQL</text><path d="M484,1192.2344 L494,1192.2344 C509,1192.2344 509,1164.0859 524,1164.0859 L534,1164.0859 " fill="none" style="stroke:#181818;stroke-width:1.0;"/><rect fill="#F1F1F1" height="36.2969" rx="12.5" ry="12.5" style="stroke:#181818;stroke-width:1.5;" width="53" x="534" y="1230.3828"/><text fill="#000000" font-family="sans-serif" font-size="14" lengthAdjust="spacing" textLength="33" x="544" y="1253.3779">ORM</text><rect fill="#F1F1F1" height="36.2969" rx="12.5" ry="12.5" style="stroke:#181818;stroke-width:1.5;" width="74" x="637" y="1202.2344"/><text fill="#000000" font-family="sans-serif" font-size="14" lengthAdjust="spacing" textLength="54" x="647" y="1225.2295">Dapper</text><path d="M587,1248.5313 L597,1248.5313 C612,1248.5313 612,1220.3828 627,1220.3828 L637,1220.3828 " fill="none" style="stroke:#181818;stroke-width:1.0;"/><rect fill="#F1F1F1" height="36.2969" rx="12.5" ry="12.5" style="stroke:#181818;stroke-width:1.5;" width="148" x="637" y="1258.5313"/><text fill="#000000" font-family="sans-serif" font-size="14" lengthAdjust="spacing" textLength="128" x="647" y="1281.5264">Entity Framework</text><path d="M587,1248.5313 L597,1248.5313 C612,1248.5313 612,1276.6797 627,1276.6797 L637,1276.6797 " fill="none" style="stroke:#181818;stroke-width:1.0;"/><path d="M484,1192.2344 L494,1192.2344 C509,1192.2344 509,1248.5313 524,1248.5313 L534,1248.5313 " fill="none" style="stroke:#181818;stroke-width:1.0;"/><path d="M300,1135.9375 L310,1135.9375 C325,1135.9375 325,1192.2344 340,1192.2344 L350,1192.2344 " fill="none" style="stroke:#181818;stroke-width:1.0;"/><path d="M98,770.0078 L108,770.0078 C123,770.0078 123,1135.9375 138,1135.9375 L148,1135.9375 " fill="none" style="stroke:#181818;stroke-width:1.0;"/><rect fill="#90EE90" height="36.2969" rx="12.5" ry="12.5" style="stroke:#181818;stroke-width:1.5;" width="154" x="148" y="1371.125"/><text fill="#000000" font-family="sans-serif" font-size="14" lengthAdjust="spacing" textLength="134" x="158" y="1394.1201">Tipos de Aplicação</text><rect fill="#ADD8E6" height="36.2969" rx="12.5" ry="12.5" style="stroke:#181818;stroke-width:1.5;" width="80" x="352" y="1314.8281"/><text fill="#000000" font-family="sans-serif" font-size="14" lengthAdjust="spacing" textLength="60" x="362" y="1337.8232">API Web</text><path d="M302,1389.2734 L312,1389.2734 C327,1389.2734 327,1332.9766 342,1332.9766 L352,1332.9766 " fill="none" style="stroke:#181818;stroke-width:1.0;"/><rect fill="#ADD8E6" height="36.2969" rx="12.5" ry="12.5" style="stroke:#181818;stroke-width:1.5;" width="85" x="352" y="1371.125"/><text fill="#000000" font-family="sans-serif" font-size="14" lengthAdjust="spacing" textLength="65" x="362" y="1394.1201">API gRPC</text><path d="M302,1389.2734 L312,1389.2734 C327,1389.2734 327,1389.2734 342,1389.2734 L352,1389.2734 " fill="none" style="stroke:#181818;stroke-width:1.0;"/><rect fill="#ADD8E6" height="36.2969" rx="12.5" ry="12.5" style="stroke:#181818;stroke-width:1.5;" width="73" x="352" y="1427.4219"/><text fill="#000000" font-family="sans-serif" font-size="14" lengthAdjust="spacing" textLength="53" x="362" y="1450.417">Worker</text><path d="M302,1389.2734 L312,1389.2734 C327,1389.2734 327,1445.5703 342,1445.5703 L352,1445.5703 " fill="none" style="stroke:#181818;stroke-width:1.0;"/><path d="M98,770.0078 L108,770.0078 C123,770.0078 123,1389.2734 138,1389.2734 L148,1389.2734 " fill="none" style="stroke:#181818;stroke-width:1.0;"/><rect fill="#90EE90" height="36.2969" rx="12.5" ry="12.5" style="stroke:#181818;stroke-width:1.5;" width="251" x="148" y="1483.7188"/><text fill="#000000" font-family="sans-serif" font-size="14" lengthAdjust="spacing" textLength="231" x="158" y="1506.7139">Desenvolvimento de um Worker</text><path d="M98,770.0078 L108,770.0078 C123,770.0078 123,1501.8672 138,1501.8672 L148,1501.8672 " fill="none" style="stroke:#181818;stroke-width:1.0;"/><!--MD5=[f2db53954bf896b20a6ec64e4beb8e18]
@startmindmap
<style>
mindmapDiagram {
:depth(1) {
BackGroundColor lightGreen
}
:depth(2) {
BackGroundColor LightBlue
}
}
</style>
* Roadmap
** Setup
*** Visual Studio
*** WSL2
*** Docker
** Bases da linguagem
*** Tipos primitivos
*** Strings
*** Records
*** Classes
*** Métodos
*** Escopo
*** Herança
*** Namespaces
*** Generics
*** Interfaces
** Técnicas
*** Testes Unitários
*** Programação assíncrona
*** Health Check
*** Testes de Integração
** Recursos externos
*** Message Broker
**** Azure Service Bus
**** RabbitMQ
*** Banco de Dados
**** MongoDB
**** PostgreSQL
**** ORM
***** Dapper
***** Entity Framework
** Tipos de Aplicação
*** API Web
*** API gRPC
*** Worker
** Desenvolvimento de um Worker
@endmindmap

PlantUML version 1.2022.13beta8(Unknown compile time)
(GPL source distribution)
Java Runtime: Java(TM) SE Runtime Environment
JVM: Java HotSpot(TM) 64-Bit Server VM
Default Encoding: UTF-8
Language: en
Country: US
--></g></svg>