<?xml version="1.0" encoding="UTF-8" standalone="no"?><svg xmlns="http://www.w3.org/2000/svg" xmlns:xlink="http://www.w3.org/1999/xlink" contentStyleType="text/css" height="239px" preserveAspectRatio="none" style="width:199px;height:239px;background:#FFFFFF;" version="1.1" viewBox="0 0 199 239" width="199px" zoomAndPan="magnify"><defs/><g><g id="elem_Stack"><rect fill="#F1F1F1" height="81.1875" style="stroke:#181818;stroke-width:0.5;" width="83" x="40.5" y="7"/><text fill="#000000" font-family="sans-serif" font-size="14" lengthAdjust="spacing" textLength="41" x="61.5" y="21.9951">Stack</text><line style="stroke:#181818;stroke-width:1.0;" x1="40.5" x2="123.5" y1="27.2969" y2="27.2969"/><text fill="#000000" font-family="sans-serif" font-size="14" lengthAdjust="spacing" textLength="8" x="46" y="42.292">2</text><text fill="#000000" font-family="sans-serif" font-size="14" lengthAdjust="spacing" textLength="54" x="64.5" y="42.292">ref(obj)</text><line style="stroke:#181818;stroke-width:1.0;" x1="59.5" x2="59.5" y1="27.2969" y2="47.5938"/><line style="stroke:#181818;stroke-width:1.0;" x1="40.5" x2="123.5" y1="47.5938" y2="47.5938"/><text fill="#000000" font-family="sans-serif" font-size="14" lengthAdjust="spacing" textLength="9" x="45.5" y="62.5889">1</text><text fill="#000000" font-family="sans-serif" font-size="14" lengthAdjust="spacing" textLength="41" x="64.5" y="62.5889">b (20)</text><line style="stroke:#181818;stroke-width:1.0;" x1="59.5" x2="59.5" y1="47.5938" y2="67.8906"/><line style="stroke:#181818;stroke-width:1.0;" x1="40.5" x2="123.5" y1="67.8906" y2="67.8906"/><text fill="#000000" font-family="sans-serif" font-size="14" lengthAdjust="spacing" textLength="9" x="45.5" y="82.8857">0</text><text fill="#000000" font-family="sans-serif" font-size="14" lengthAdjust="spacing" textLength="40" x="64.5" y="82.8857">a (10)</text><line style="stroke:#181818;stroke-width:1.0;" x1="59.5" x2="59.5" y1="67.8906" y2="88.1875"/></g><g id="elem_Heap"><rect fill="#F1F1F1" height="40.5938" style="stroke:#181818;stroke-width:0.5;" width="152" x="7" y="155.0003"/><text fill="#000000" font-family="sans-serif" font-size="14" lengthAdjust="spacing" textLength="37" x="64.5" y="169.9954">Heap</text><line style="stroke:#181818;stroke-width:1.0;" x1="7" x2="159" y1="175.2972" y2="175.2972"/><text fill="#000000" font-family="sans-serif" font-size="14" lengthAdjust="spacing" textLength="23" x="12" y="190.2923">obj</text><text fill="#000000" font-family="sans-serif" font-size="14" lengthAdjust="spacing" textLength="109" x="45" y="190.2923">Classe { Data }</text><line style="stroke:#181818;stroke-width:1.0;" x1="40" x2="40" y1="175.2972" y2="195.594"/></g><!--link Stack to Heap--><g id="link_Stack_Heap"><path codeLine="10" d="M125,37 C161.33,37 192.536,169.1583 167,195.0003 C142.09,220.2089 88.7847,232.1019 83.4351,201.3127 " fill="none" id="Stack-to-Heap" style="stroke:#181818;stroke-width:1.0;"/><polygon fill="#181818" points="83,196.0003,79.7483,205.2969,83.4083,200.9836,87.7216,204.6436,83,196.0003" style="stroke:#181818;stroke-width:1.0;"/></g><!--SRC=[oqqiK0WkIKpELgZcCbAmjLCeIatJo4_AqkGo1F6I53IC33Iv343iH0KDGo2xbYiNgCSZ5KXKSm5L0cMSSnABYrCLgXLS4aiI5Mg1IhZ0PbfP6Idewjg15LjP0TK20000]--></g></svg>