<?xml version="1.0" encoding="UTF-8" standalone="no"?>
<!-- Created with Inkscape (http://www.inkscape.org/) -->

<svg
   width="195.88042mm"
   height="27.121666mm"
   viewBox="0 0 195.88042 27.121666"
   version="1.1"
   id="svg5"
   inkscape:version="1.1.2 (0a00cf5339, 2022-02-04)"
   sodipodi:docname="ambev-tech.svg"
   xmlns:inkscape="http://www.inkscape.org/namespaces/inkscape"
   xmlns:sodipodi="http://sodipodi.sourceforge.net/DTD/sodipodi-0.dtd"
   xmlns="http://www.w3.org/2000/svg"
   xmlns:svg="http://www.w3.org/2000/svg">
  <sodipodi:namedview
     id="namedview7"
     pagecolor="#ffffff"
     bordercolor="#666666"
     borderopacity="1.0"
     inkscape:pageshadow="2"
     inkscape:pageopacity="0.0"
     inkscape:pagecheckerboard="0"
     inkscape:document-units="mm"
     showgrid="false"
     inkscape:zoom="0.75187991"
     inkscape:cx="377.05489"
     inkscape:cy="343.1399"
     inkscape:window-width="1920"
     inkscape:window-height="1043"
     inkscape:window-x="0"
     inkscape:window-y="0"
     inkscape:window-maximized="1"
     inkscape:current-layer="layer1"
     fit-margin-top="0"
     fit-margin-left="0"
     fit-margin-right="0"
     fit-margin-bottom="0" />
  <defs
     id="defs2" />
  <g
     inkscape:label="Camada 1"
     inkscape:groupmode="layer"
     id="layer1"
     transform="translate(-4.8386279,-57.855994)">
    <g
       id="g57"
       transform="matrix(0.88559305,0,0,0.88559305,-6.0758911,-36.406784)">
      <path
         style="fill:#b9b9b9;fill-opacity:1;stroke-width:0.264583"
         d="m 35.862239,130.55332 c -0.329107,-0.41964 -0.319749,-0.429 0.09989,-0.0999 0.254661,0.19971 0.463021,0.40807 0.463021,0.46302 0,0.21776 -0.217272,0.0776 -0.562916,-0.36313 z m 63.905486,-0.39687 -0.504029,-0.59532 0.595313,0.50403 c 0.559441,0.47366 0.715761,0.6866 0.504031,0.6866 -0.0502,0 -0.3181,-0.26789 -0.595315,-0.59531 z M 172.2887,116.46426 c 0.26339,-0.29104 0.53842,-0.52917 0.61118,-0.52917 0.0728,0 -0.0832,0.23813 -0.3466,0.52917 -0.26339,0.29104 -0.53842,0.52916 -0.61118,0.52916 -0.0728,0 0.0832,-0.23812 0.3466,-0.52916 z"
         id="path69" />
      <path
         style="fill:#a3a3a3;fill-opacity:1;stroke-width:0.264583"
         d="m 26.982141,130.35488 c 0.0015,-0.87312 0.05088,-1.19841 0.109765,-0.72286 0.05889,0.47555 0.05767,1.18992 -0.0027,1.5875 -0.06037,0.39757 -0.108552,0.008 -0.107067,-0.86464 z m 131.746659,-0.0501 c 0.25466,-0.0666 0.67138,-0.0666 0.92604,0 0.25466,0.0666 0.0463,0.121 -0.46302,0.121 -0.50932,0 -0.71768,-0.0545 -0.46302,-0.121 z m 18.78542,0 c 0.25466,-0.0666 0.67138,-0.0666 0.92604,0 0.25466,0.0666 0.0463,0.121 -0.46302,0.121 -0.50932,0 -0.71768,-0.0545 -0.46302,-0.121 z m -40.43395,-7.09366 c 1.9e-4,-3.34698 0.0381,-4.67971 0.0843,-2.96163 0.0462,1.71808 0.046,4.45652 -2.6e-4,6.08541 -0.0464,1.6289 -0.0842,0.2232 -0.084,-3.12378 z m -29.53181,4.97864 c 0.191,-0.0764 0.4192,-0.067 0.50712,0.0209 0.0879,0.0879 -0.0684,0.15045 -0.34726,0.13896 -0.30823,-0.0127 -0.37092,-0.0754 -0.15986,-0.15985 z m 49.60824,-3.98583 c 1.86386,-0.0455 4.84043,-0.0454 6.61459,2.9e-4 1.77416,0.0457 0.24918,0.083 -3.38884,0.0828 -3.63802,-1.6e-4 -5.08961,-0.0376 -3.22575,-0.0831 z M 84.071044,122.9245 c 0.0127,-0.30822 0.07539,-0.37092 0.15985,-0.15985 0.07643,0.19099 0.06703,0.4192 -0.02088,0.50712 -0.08792,0.0879 -0.150453,-0.0684 -0.138965,-0.34727 z m 149.283396,-0.90399 c 0,-0.80037 0.0496,-1.12779 0.11022,-0.72761 0.0606,0.40019 0.0606,1.05503 0,1.45521 -0.0606,0.40018 -0.11022,0.0728 -0.11022,-0.7276 z m -76.99315,0.0672 c 1.42639,-0.0477 3.68858,-0.0475 5.02709,4.5e-4 1.3385,0.0479 0.17146,0.0869 -2.59343,0.0867 -2.7649,-2.5e-4 -3.86004,-0.0395 -2.43366,-0.0871 z m -79.69858,-2.0736 c 0.0127,-0.30822 0.07539,-0.37092 0.159851,-0.15985 0.07643,0.191 0.06703,0.4192 -0.02088,0.50712 -0.08792,0.0879 -0.150452,-0.0683 -0.138964,-0.34727 z m -17.020368,-1.07922 c 0.181901,-0.0734 0.479557,-0.0734 0.661458,0 0.181902,0.0734 0.03307,0.13345 -0.330729,0.13345 -0.363802,0 -0.51263,-0.06 -0.330729,-0.13345 z m 9.80612,-0.006 c 0.190995,-0.0764 0.419198,-0.067 0.507119,0.0209 0.08792,0.0879 -0.06835,0.15045 -0.347266,0.13896 -0.308226,-0.0127 -0.370919,-0.0754 -0.159853,-0.15985 z m -42.466321,-5.24322 c 0.0015,-0.87312 0.05088,-1.19841 0.109765,-0.72286 0.05889,0.47555 0.05767,1.18992 -0.0027,1.5875 -0.06037,0.39757 -0.108552,0.008 -0.107067,-0.86464 z m 19.563326,0.99615 c 0.691224,-0.0545 1.822318,-0.0545 2.513542,0 0.691224,0.0545 0.125677,0.0991 -1.256771,0.0991 -1.382448,0 -1.947995,-0.0446 -1.256771,-0.0991 z m 7.14375,0 c 0.691224,-0.0545 1.822318,-0.0545 2.513542,0 0.691224,0.0545 0.125677,0.0991 -1.256771,0.0991 -1.382448,0 -1.947995,-0.0446 -1.256771,-0.0991 z m 60.192713,-5.8e-4 c 0.76398,-0.0535 2.01414,-0.0535 2.77812,0 0.76398,0.0534 0.13891,0.0972 -1.38906,0.0972 -1.52797,0 -2.15305,-0.0437 -1.38906,-0.0972 z m 12.17083,0 c 0.76398,-0.0535 2.01414,-0.0535 2.77812,0 0.76399,0.0534 0.13891,0.0972 -1.38906,0.0972 -1.52797,0 -2.15305,-0.0437 -1.38906,-0.0972 z m 6.49027,2.5e-4 c 0.69562,-0.0547 1.76718,-0.054 2.38125,0.001 0.61408,0.0555 0.0449,0.10023 -1.26475,0.0994 -1.30969,-7.9e-4 -1.81211,-0.0462 -1.1165,-0.10089 z m 9.25244,-0.002 c 1.12778,-0.0496 2.97325,-0.0496 4.10104,0 1.12779,0.0496 0.20505,0.0902 -2.05052,0.0902 -2.25557,0 -3.17831,-0.0406 -2.05052,-0.0902 z m -3.96875,-6.34284 c 0.40018,-0.0606 1.05502,-0.0606 1.45521,0 0.40018,0.0606 0.0728,0.11022 -0.72761,0.11022 -0.80036,0 -1.12779,-0.0496 -0.7276,-0.11022 z m 50.80364,-3.5e-4 c 0.40218,-0.0608 0.99749,-0.0592 1.32291,0.004 0.32542,0.0628 -0.004,0.11256 -0.73124,0.11057 -0.7276,-0.002 -0.99386,-0.0534 -0.59167,-0.11418 z"
         id="path67" />
      <path
         style="fill:#8c8c8c;fill-opacity:1;stroke-width:0.264583"
         d="m 174.23932,128.96582 c -0.32911,-0.41964 -0.31975,-0.429 0.0999,-0.0999 0.25466,0.19971 0.46302,0.40807 0.46302,0.46302 0,0.21776 -0.21728,0.0776 -0.56292,-0.36313 z m 6.91292,0.36313 c 0,-0.0549 0.20836,-0.26331 0.46302,-0.46302 0.41964,-0.32911 0.429,-0.31975 0.0999,0.0999 -0.34564,0.44073 -0.56291,0.58089 -0.56291,0.36313 z M 61.262238,119.44082 c -0.329108,-0.41964 -0.319749,-0.429 0.0999,-0.0999 0.44073,0.34565 0.580887,0.56292 0.363125,0.56292 -0.05494,0 -0.263301,-0.20836 -0.463021,-0.46302 z m 93.696252,-0.95979 c 0,-0.0549 0.20836,-0.2633 0.46302,-0.46302 0.41964,-0.32911 0.429,-0.31975 0.0999,0.0999 -0.34564,0.44073 -0.56291,0.58089 -0.56291,0.36313 z m 42.82875,-0.62771 c -0.32911,-0.41964 -0.31975,-0.429 0.0999,-0.0999 0.25467,0.19972 0.46302,0.40808 0.46302,0.46303 0,0.21776 -0.21727,0.0776 -0.56291,-0.36313 z m -104.369515,-1.45521 -0.504029,-0.59531 0.595313,0.50403 c 0.327422,0.27721 0.595312,0.5451 0.595312,0.59531 0,0.21173 -0.212934,0.0554 -0.686596,-0.50403 z m 17.197915,0 -0.50403,-0.59531 0.59532,0.50403 c 0.32742,0.27721 0.59531,0.5451 0.59531,0.59531 0,0.21173 -0.21294,0.0554 -0.6866,-0.50403 z"
         id="path65" />
      <path
         style="fill:#606060;fill-opacity:1;stroke-width:0.264583"
         d="m 158.99842,132.68507 c 0.25743,-0.0671 0.61462,-0.0627 0.79375,0.01 0.17913,0.0725 -0.0315,0.12737 -0.46806,0.12197 -0.43656,-0.005 -0.58312,-0.0647 -0.32569,-0.13177 z m 18.78542,0 c 0.25743,-0.0671 0.61461,-0.0627 0.79375,0.01 0.17913,0.0725 -0.0315,0.12737 -0.46806,0.12197 -0.43656,-0.005 -0.58313,-0.0647 -0.32569,-0.13177 z M 50.302087,123.60801 c 0,-4.87495 0.03572,-6.86925 0.07939,-4.43177 0.04366,2.43747 0.04366,6.42606 0,8.86354 -0.04366,2.43747 -0.07939,0.44318 -0.07939,-4.43177 z m 7.13675,3.43958 c 0,-2.98318 0.03859,-4.20357 0.08575,-2.71198 0.04716,1.49159 0.04716,3.93237 0,5.42396 -0.04716,1.49159 -0.08575,0.2712 -0.08575,-2.71198 z m 26.65096,4.56406 c -0.03947,-0.85605 0.287518,-1.13621 0.647081,-0.55443 0.112747,0.18243 0.073,0.23391 -0.09867,0.12781 -0.173379,-0.10716 -0.331372,0.11287 -0.398114,0.55443 -0.103827,0.68691 -0.113101,0.67902 -0.150299,-0.12781 z M 187.88867,120.43301 c 0,-6.6212 0.0344,-9.32987 0.0763,-6.01927 0.042,3.3106 0.042,8.72794 0,12.03854 -0.042,3.3106 -0.0763,0.60193 -0.0763,-6.01927 z m 2.63809,5.68854 c 1.7e-4,-3.4925 0.0378,-4.88466 0.0837,-3.09368 0.0458,1.79097 0.0457,4.64847 -2.6e-4,6.35 -0.0461,1.70152 -0.0836,0.23618 -0.0834,-3.25632 z m -7.52244,4.7949 c 0,-0.0549 0.20836,-0.26331 0.46302,-0.46302 0.41965,-0.32911 0.42901,-0.31975 0.0999,0.0999 -0.34565,0.44073 -0.56292,0.58089 -0.56292,0.36313 z M 76.751142,125.06322 c 2.64e-4,-2.61938 0.03987,-3.65515 0.08799,-2.30173 0.04812,1.35343 0.04789,3.49656 -5.29e-4,4.7625 -0.04837,1.26595 -0.08774,0.1586 -0.08746,-2.46077 z m -14.554912,0.13229 c 0,-2.25558 0.04058,-3.17831 0.09018,-2.05052 0.0496,1.12778 0.0496,2.97325 0,4.10104 -0.0496,1.12778 -0.09018,0.20505 -0.09018,-2.05052 z m -16.754353,-0.94809 c 0.0127,-0.30823 0.07539,-0.37092 0.159851,-0.15986 0.07643,0.191 0.06703,0.4192 -0.02088,0.50712 -0.08792,0.0879 -0.150453,-0.0683 -0.138965,-0.34726 z m 51.904167,-0.7717 c 0.0029,-0.58209 0.05712,-0.78906 0.120407,-0.45994 0.06328,0.32912 0.06088,0.80537 -0.0053,1.05833 -0.06622,0.25297 -0.117999,-0.0163 -0.115062,-0.59839 z m -55.695368,-4.54086 c 0.181901,-0.0734 0.479557,-0.0734 0.661458,0 0.181901,0.0734 0.03307,0.13345 -0.330729,0.13345 -0.363802,0 -0.512631,-0.06 -0.330729,-0.13345 z m 45.64566,-0.008 c 0.257431,-0.0671 0.614619,-0.0627 0.79375,0.01 0.17913,0.0725 -0.03149,0.12736 -0.468056,0.12197 -0.436563,-0.005 -0.583126,-0.0647 -0.325694,-0.13177 z m 103.225134,-5.90207 c 0,-2.54661 0.0397,-3.58841 0.0882,-2.3151 0.0485,1.27331 0.0485,3.3569 0,4.63021 -0.0485,1.27331 -0.0882,0.23151 -0.0882,-2.31511 z m -58.10834,4.03717 c 0.9152,-0.0518 2.34395,-0.0514 3.175,9.5e-4 0.83104,0.0523 0.0822,0.0947 -1.66402,0.0942 -1.74625,-5.3e-4 -2.42619,-0.0433 -1.51098,-0.0952 z m 9.38234,-5e-4 c 1.12778,-0.0496 2.97325,-0.0496 4.10104,0 1.12779,0.0496 0.20505,0.0902 -2.05052,0.0902 -2.25557,0 -3.17831,-0.0406 -2.05052,-0.0902 z m -105.76719,-0.5972 c 0.263389,-0.29104 0.53842,-0.52917 0.611181,-0.52917 0.07276,0 -0.08321,0.23813 -0.346598,0.52917 -0.263389,0.29104 -0.53842,0.52916 -0.611181,0.52916 -0.07276,0 0.08321,-0.23812 0.346598,-0.52916 z m 122.70556,0.0812 c 0.25743,-0.0671 0.61461,-0.0627 0.79375,0.01 0.17913,0.0725 -0.0315,0.12736 -0.46806,0.12197 -0.43656,-0.005 -0.58313,-0.0647 -0.32569,-0.13177 z m -74.419102,-0.18113 c 0,-0.0549 0.208359,-0.2633 0.463021,-0.46302 0.419645,-0.32911 0.429003,-0.31975 0.0999,0.0999 -0.345644,0.44073 -0.562917,0.58088 -0.562917,0.36312 z M 199.9039,116.00124 c -0.3291,-0.41965 -0.31974,-0.42901 0.0999,-0.0999 0.25466,0.19972 0.46302,0.40808 0.46302,0.46302 0,0.21776 -0.21727,0.0776 -0.56292,-0.36312 z M 40.465086,114.42882 c 0.257431,-0.0671 0.614619,-0.0627 0.79375,0.01 0.17913,0.0725 -0.03149,0.12736 -0.468056,0.12197 -0.436563,-0.005 -0.583126,-0.0647 -0.325694,-0.13177 z m 20.902083,0 c 0.257431,-0.0671 0.614619,-0.0627 0.79375,0.01 0.179131,0.0725 -0.03149,0.12736 -0.468056,0.12197 -0.436562,-0.005 -0.583126,-0.0647 -0.325694,-0.13177 z m 9.255382,9.8e-4 c 0.254661,-0.0666 0.67138,-0.0666 0.926041,0 0.254662,0.0666 0.0463,0.121 -0.463021,0.121 -0.509323,0 -0.717682,-0.0544 -0.46302,-0.121 z m 17.996701,-9.8e-4 c 0.257432,-0.0671 0.614619,-0.0627 0.79375,0.01 0.179131,0.0725 -0.03149,0.12736 -0.468056,0.12197 -0.436562,-0.005 -0.583125,-0.0647 -0.325694,-0.13177 z m 16.663718,9.8e-4 c 0.25466,-0.0666 0.67138,-0.0666 0.92604,0 0.25466,0.0666 0.0463,0.121 -0.46302,0.121 -0.50932,0 -0.71768,-0.0544 -0.46302,-0.121 z m 110.33489,-7.94499 c 0.40218,-0.0608 0.99749,-0.0592 1.32291,0.004 0.32542,0.0628 -0.004,0.11257 -0.73124,0.11058 -0.7276,-0.002 -0.99386,-0.0534 -0.59167,-0.11419 z"
         id="path63" />
      <path
         style="fill:#494949;fill-opacity:1;stroke-width:0.264583"
         d="m 67.876821,131.87624 c -0.329107,-0.41965 -0.319749,-0.42901 0.0999,-0.0999 0.44073,0.34565 0.580888,0.56292 0.363125,0.56292 -0.05494,0 -0.2633,-0.20836 -0.463021,-0.46302 z m 25.169167,-0.95979 c 0,-0.0549 0.208359,-0.26331 0.463021,-0.46302 0.419645,-0.32911 0.429003,-0.31975 0.0999,0.0999 -0.345644,0.44073 -0.562917,0.58089 -0.562917,0.36313 z m 79.217572,-0.49542 -0.50403,-0.59531 0.59531,0.50402 c 0.32742,0.27722 0.59531,0.54511 0.59531,0.59532 0,0.21173 -0.21293,0.0554 -0.68659,-0.50403 z M 67.645988,119.80395 c 0,-0.055 0.208359,-0.26331 0.463021,-0.46303 0.419645,-0.3291 0.429003,-0.31974 0.0999,0.0999 -0.345644,0.44073 -0.562917,0.58089 -0.562917,0.36313 z m -0.926042,-3.60428 c 0.26339,-0.29104 0.538422,-0.52916 0.611183,-0.52916 0.07276,0 -0.08321,0.23812 -0.346599,0.52916 -0.26339,0.29105 -0.538422,0.52917 -0.611183,0.52917 -0.07276,0 0.08321,-0.23812 0.346599,-0.52917 z"
         id="path61" />
      <path
         style="fill:#333333;fill-opacity:1;stroke-width:0.264583"
         d="m 203.38228,136.91853 c 0.003,-0.11751 2.61444,-6.94068 5.80371,-15.16261 l 5.79867,-14.94895 1.10836,-0.083 c 1.04449,-0.0782 1.09892,-0.0477 0.94449,0.52917 -0.0901,0.33667 -2.70788,7.16057 -5.81722,15.16421 l -5.65334,14.55209 -1.09486,0.0814 c -0.60217,0.0447 -1.09258,-0.0148 -1.08981,-0.1323 z M 38.996267,132.23938 c -2.503527,-0.93267 -4.363863,-3.07401 -5.075949,-5.84269 -1.1974,-4.65563 0.551726,-9.32889 4.17976,-11.16736 1.123982,-0.56956 1.599078,-0.65633 3.122549,-0.57024 1.501881,0.0849 1.993982,0.24047 2.99761,0.9479 l 1.200751,0.84636 v -0.7883 -0.78829 h 2.38125 2.38125 v 8.73125 8.73125 h -2.38125 -2.38125 v -0.82602 c 0,-0.80701 -0.01371,-0.81618 -0.595312,-0.39815 -1.913996,1.37568 -4.049205,1.78748 -5.829409,1.12429 z m 5.236848,-5.00933 c 2.880024,-2.88003 1.035841,-8.74068 -2.608445,-8.28942 -1.945609,0.24092 -3.082849,1.96268 -3.082849,4.66738 0,2.98917 1.174586,4.49791 3.501724,4.49791 1.134255,0 1.43333,-0.11963 2.18957,-0.87587 z m 42.614339,4.99613 c -0.571537,-0.21232 -1.370386,-0.63092 -1.775222,-0.93023 -0.957535,-0.70793 -1.022077,-0.69217 -1.022077,0.24956 v 0.79375 h -2.38125 -2.38125 v -11.90625 -11.90625 h 2.513541 2.513542 v 3.99227 3.99227 l 0.78703,-0.66224 c 2.580867,-2.17166 6.869956,-1.41059 9.189574,1.63063 1.815809,2.38069 2.319417,6.81184 1.130073,9.94329 -0.681705,1.79487 -2.276692,3.66184 -3.78636,4.43201 -1.369317,0.69858 -3.468222,0.8613 -4.787601,0.37119 z m 2.728711,-4.55219 c 1.517603,-1.06297 2.085176,-4.46607 1.104932,-6.62504 -0.624414,-1.37527 -1.652227,-2.07115 -3.059067,-2.07115 -1.442519,0 -2.44669,0.70765 -3.10002,2.1846 -0.998352,2.25695 -0.223086,5.81609 1.441667,6.6185 0.920073,0.44348 2.910819,0.38456 3.612488,-0.10691 z m 14.016955,4.51527 c -2.67711,-0.82424 -5.04247,-3.24837 -5.787982,-5.93179 -0.396081,-1.42567 -0.309938,-4.55456 0.165963,-6.0281 0.603729,-1.86934 2.094359,-3.70116 3.782709,-4.64855 1.18585,-0.66541 1.79939,-0.82188 3.57188,-0.91092 1.95923,-0.0984 2.26298,-0.0428 3.59423,0.65827 2.69568,1.41958 4.20165,4.22672 4.31052,8.03482 l 0.0562,1.96481 -5.4901,0.0715 c -3.21986,0.0419 -5.49011,0.1749 -5.49011,0.32153 0,0.54563 1.66874,2.10627 2.57033,2.40382 1.43225,0.47269 4.5394,0.15676 6.27557,-0.63808 l 1.44283,-0.66055 -0.13425,1.36755 c -0.0738,0.75215 -0.18643,1.62754 -0.25021,1.9453 -0.36938,1.8405 -5.40655,3.039 -8.61755,2.05038 z m 4.78522,-11.29323 c -0.57346,-2.04502 -3.02803,-2.98834 -4.58633,-1.76258 -0.69011,0.54284 -1.48561,1.79838 -1.48561,2.34475 0,0.17839 1.12901,0.27772 3.15653,0.27772 h 3.15654 z m 47.16956,10.91168 c -3.03546,-1.53382 -4.4272,-4.17296 -4.39383,-8.33199 0.0403,-5.02991 2.53177,-8.27494 6.90133,-8.98884 2.61252,-0.42684 5.82214,1.00352 7.22871,3.22145 0.94069,1.48331 1.27262,2.54466 1.49344,4.7752 l 0.16371,1.65364 h -6.52055 -6.52056 v 1.33346 c 0,2.69552 1.79726,4.64898 4.53535,4.92954 2.11868,0.21708 3.59721,-0.28402 4.93112,-1.67125 l 1.1321,-1.17735 0.78613,0.55978 c 0.43238,0.30787 0.78614,0.66659 0.78614,0.79713 0,0.47458 -1.68948,2.14532 -2.86748,2.83567 -1.01466,0.59463 -1.5896,0.72311 -3.60173,0.80486 -2.25887,0.0918 -2.48823,0.0498 -4.05388,-0.7413 z m 8.40642,-10.49742 c 0,-1.44572 -0.9511,-3.18006 -2.19554,-4.0036 -1.3807,-0.9137 -3.79361,-0.9973 -5.18474,-0.17963 -1.48863,0.87499 -2.4673,2.30744 -2.61309,3.8247 l -0.12812,1.33333 h 5.06075 5.06074 z m 10.70555,10.66766 c -1.67584,-0.78038 -3.38861,-2.70024 -4.00422,-4.48837 -0.64344,-1.86895 -0.64293,-5.89565 0.001,-7.76612 0.70536,-2.04898 2.03414,-3.62255 3.78051,-4.47697 2.07298,-1.01421 4.99696,-1.04534 6.88583,-0.0733 1.10739,0.56993 3.00419,2.53646 3.00419,3.11471 0,0.19627 -1.87179,1.17653 -1.97052,1.03197 -1.42857,-2.09152 -2.2853,-2.59103 -4.444,-2.59103 -1.9852,0 -3.55039,0.85236 -4.3533,2.37067 -0.54011,1.02138 -0.60861,1.51528 -0.60346,4.35167 0.008,4.32275 0.59692,5.63668 2.97194,6.62903 2.12739,0.88888 4.72197,0.23234 6.20842,-1.57099 l 0.81436,-0.98796 0.80688,0.59655 c 0.75555,0.5586 0.784,0.64029 0.44731,1.28451 -0.53383,1.02143 -1.71085,2.04357 -3.05263,2.65095 -1.73837,0.78689 -4.71493,0.75236 -6.49237,-0.0753 z M 52.564738,123.60801 v -8.73125 h 2.38125 2.38125 v 0.84325 0.84325 l 0.727604,-0.69413 c 0.958093,-0.91401 1.926431,-1.25696 3.549113,-1.25696 1.590294,0 2.893399,0.56655 3.810796,1.65682 l 0.673029,0.79985 0.845251,-0.80184 c 1.315379,-1.24782 2.353702,-1.65531 4.205547,-1.65047 2.674736,0.007 4.531318,1.40206 5.234419,3.93327 0.14623,0.52644 0.266538,3.16061 0.267348,5.8537 0.0016,5.20059 0.171042,6.32825 1.099611,7.31667 l 0.581607,0.61909 h -2.538084 -2.538082 l -0.616892,-0.99219 c -0.575916,-0.92628 -0.621678,-1.29974 -0.688962,-5.6224 -0.03964,-2.54661 -0.131963,-4.90112 -0.205168,-5.23225 -0.309171,-1.39848 -1.985756,-2.08282 -3.33443,-1.36103 -1.047838,0.56078 -1.283124,1.78223 -1.283124,6.66113 0,3.98903 0.0655,4.71124 0.505548,5.57437 l 0.505547,0.9916 -2.423777,-0.0758 -2.423776,-0.0758 -0.462611,-0.92605 c -0.387408,-0.7755 -0.462743,-1.6787 -0.463431,-5.55625 -7.93e-4,-3.87862 -0.07591,-4.78006 -0.463431,-5.55341 -0.828309,-1.65301 -2.71327,-1.74176 -3.875166,-0.18244 -0.51834,0.69563 -0.562219,1.14131 -0.644705,6.54843 l -0.08851,5.80201 h -2.358885 -2.358885 z m 66.014842,8.40983 c -0.72996,-2.04242 -5.68984,-16.84311 -5.68984,-16.97895 0,-0.0997 1.15051,-0.14722 2.5567,-0.10557 l 2.5567,0.0757 1.61049,5.73451 c 0.88577,3.15398 1.67754,5.80072 1.75949,5.88165 0.082,0.0809 0.7243,-1.96382 1.42743,-4.54389 0.70313,-2.58006 1.44436,-5.25657 1.64717,-5.94779 l 0.36877,-1.25677 h 2.52112 c 2.28106,0 2.50703,0.0441 2.37312,0.46302 -0.0814,0.25466 -1.37925,4.15396 -2.88412,8.6651 l -2.73613,8.20209 -2.69469,0.0754 c -2.01063,0.0563 -2.72553,-0.0109 -2.81621,-0.26458 z m 21.17639,0.12842 c -0.9167,-0.23286 -1.67468,-0.87409 -2.1049,-1.78071 -0.34633,-0.72984 -0.41967,-1.97553 -0.41967,-7.12826 v -6.24387 h -3.2033 c -2.82172,0 -3.18404,-0.0502 -3.04158,-0.42145 0.0889,-0.2318 0.23365,-0.70805 0.32157,-1.05833 0.15397,-0.61349 0.2469,-0.63688 2.52981,-0.63688 3.4341,0 3.3935,0.0412 3.3935,-3.4489 v -2.9011 h 1.32292 1.32292 v 3.175 3.175 h 3.96875 3.96875 v 1.05833 1.05833 h -3.96875 -3.96875 v 6.4823 6.48229 h 3.96875 3.96875 v 1.19062 1.19063 l -3.77031,-0.0307 c -2.07368,-0.0169 -4.00348,-0.0899 -4.28846,-0.16231 z m 48.27543,-11.71325 v -11.90625 h 1.19063 1.19062 v 4.63021 c 0,2.54661 0.10462,4.6302 0.23249,4.6302 0.12786,0 0.38344,-0.36443 0.56794,-0.80985 1.21904,-2.94304 6.49049,-3.38009 8.89206,-0.73725 1.48754,1.63698 1.54594,1.96802 1.63821,9.28617 l 0.0859,6.81302 h -1.34268 -1.34268 l -5.2e-4,-6.28386 c -5.3e-4,-6.88817 -0.1182,-7.50646 -1.64227,-8.62362 -1.07155,-0.78545 -3.28014,-0.89086 -4.7785,-0.22807 -2.12706,0.9409 -2.1661,1.08896 -2.2607,8.57466 l -0.0828,6.56089 h -1.17386 -1.17386 z m -168.617495,6.92894 -7.089374,-4.13714 0.07792,-1.29257 0.07792,-1.29257 7.011458,-4.06673 c 3.856302,-2.2367 7.100756,-4.06913 7.209896,-4.07208 0.109141,-0.003 0.195757,0.56019 0.192481,1.25142 l -0.006,1.25677 -6.079459,3.42234 c -3.343703,1.88229 -6.07946,3.49346 -6.07946,3.58037 0,0.0869 2.737078,1.70201 6.082394,3.58911 l 6.082395,3.4311 0.003,1.25677 c 0.0017,0.69122 -0.08627,1.24632 -0.195414,1.23356 -0.10914,-0.0128 -3.388656,-1.88493 -7.287812,-4.16035 z m 199.315765,2.92679 0.007,-1.25677 6.07882,-3.40133 c 3.34336,-1.87074 6.07882,-3.49527 6.07882,-3.61008 0,-0.11482 -2.68919,-1.72668 -5.97598,-3.58192 -3.28679,-1.85524 -6.03274,-3.52106 -6.10211,-3.70183 -0.0694,-0.18078 -0.0889,-0.79702 -0.0433,-1.36944 l 0.0828,-1.04076 7.14375,4.13407 7.14375,4.13408 0.0787,1.33833 0.0787,1.33833 -7.14866,4.13704 c -3.93176,2.27538 -7.21164,4.13705 -7.28862,4.13705 -0.077,0 -0.13699,-0.56555 -0.13336,-1.25677 z"
         id="path59" />
    </g>
  </g>
</svg>
